# xmcd
#
# Track frame offsets:
# 150
# 28115
# 53505
# 75487
# 96885
# 121920
# 139252
# 163672
# 186262
# 216662
#
# Disc length: 3199 seconds
#
#
# Revision: 0
# Processed by: cddbd v1.5.1PL2 Copyright (c) Steve Scherf et al.
# Submitted via: FreeRIP 2.945 
#
DISCID=890c7d0a
DTITLE=Luther Vandross - Stop To Love
DYEAR=2002
DGENRE=R&B
TTITLE0=The Glow Of Love
TTITLE1=I Can't Wait No Longer (Let's Do This)
TTITLE2=Ain't No Stoppin' Us Now
TTITLE3=Give Me The Reason
TTITLE4=Lady, Lady
TTITLE5=Never Too Much
TTITLE6=I Can Tell You That
TTITLE7=Heaven Knows
TTITLE8=The Rush
TTITLE9=Stop To Love
EXTD=
EXTT0=
EXTT1=
EXTT2=
EXTT3=
EXTT4=
EXTT5=
EXTT6=
EXTT7=
EXTT8=
EXTT9=
PLAYORDER=
